<svg width="140" height="57" viewBox="0 0 140 57" fill="none" xmlns="http://www.w3.org/2000/svg">
<mask id="mask0_9481_637" style="mask-type:luminance" maskUnits="userSpaceOnUse" x="2" y="16" width="136" height="25">
<path d="M2.375 16.3115H137.75V40.0615H2.375V16.3115Z" fill="white"/>
</mask>
<g mask="url(#mask0_9481_637)">
<path d="M44.5344 18.6202H37.232V20.5732H42.5924C43.6722 20.5732 44.5336 21.5082 44.5336 22.6497V24.355C44.5336 25.5108 43.6722 26.4315 42.5924 26.4315H35.4072V24.4793H42.7088V22.5262H37.3476C36.2678 22.5262 35.4072 21.5905 35.4072 20.4497V18.7437C35.4072 17.5886 36.2678 16.6671 37.3476 16.6671H44.5336L44.5344 18.6202ZM53.3852 16.6671C54.465 16.6671 55.339 17.5886 55.339 18.7437V24.355C55.339 25.5108 54.465 26.4315 53.3852 26.4315H47.7691C46.6893 26.4315 45.8279 25.51 45.8279 24.355V18.7437C45.8279 17.5886 46.6893 16.6671 47.7691 16.6671H53.3852ZM53.5008 18.6202H47.6519V24.4785H53.5008V18.6202ZM58.5888 24.4152H65.7099V26.5194H57.8819C57.1876 26.5194 56.6215 25.9146 56.6215 25.172V16.5903H58.588L58.5888 24.4152ZM74.9217 16.6671C75.7965 16.6671 76.5034 17.4097 76.5034 18.3455V26.4315H74.6652V23.2277H68.8164V26.4315H66.9908V18.3455C66.9908 17.4097 67.6851 16.6671 68.5583 16.6671H74.9217ZM74.6652 18.6202H68.8164V21.2746H74.6652V18.6202ZM85.4611 16.6671H87.2994V25.1672C87.2994 25.8687 86.7595 26.4323 86.104 26.4323H84.6901C84.2404 26.4466 83.8414 26.1853 83.6364 25.7594L80.0881 18.621H79.6123V26.4323H77.7875V17.9472C77.7875 17.2316 78.314 16.6679 78.9695 16.6679H80.461C80.898 16.6679 81.3096 16.9157 81.5147 17.3416L85.0629 24.4801H85.4611V16.6671ZM96.5144 16.6671C97.3884 16.6671 98.0954 17.4097 98.0954 18.3455V26.4315H96.2571V23.2277H90.4083V26.4315H88.5835V18.3455C88.5835 17.4097 89.277 16.6671 90.151 16.6671H96.5144ZM96.2571 18.6202H90.4083V21.2746H96.2571V18.6202ZM44.3546 31.4689H37.232V33.422H44.3539V35.375H37.232V39.2811H35.4072V29.5167H44.3531L44.3546 31.4689ZM53.1968 29.5167C54.2766 29.5167 55.1506 30.4382 55.1506 31.5932V37.2045C55.1506 38.3596 54.2766 39.2811 53.1968 39.2811H47.5791C46.4993 39.2811 45.6379 38.3596 45.6379 37.2045V31.5932C45.6379 30.4374 46.4993 29.5167 47.5791 29.5167H53.1968ZM53.3124 31.4697H47.4635V37.328H53.3124V31.4697ZM64.1083 29.5167H65.9458V36.0083C65.9331 37.8228 64.5706 39.2811 62.8741 39.2811H59.4937C57.7971 39.2811 56.4339 37.8228 56.4339 36.0075V29.5159H58.2595V35.6093C58.2595 36.5577 58.9799 37.328 59.8666 37.328H62.5012C63.3879 37.328 64.1083 36.5578 64.1083 35.6085V29.5167ZM74.9043 29.5167H76.7417V38.016C76.7417 38.7174 76.2026 39.2811 75.5463 39.2811H74.1324C73.6827 39.2945 73.2845 39.0333 73.0787 38.6066L69.5304 31.4697H69.0554V39.2811H67.2298V30.7952C67.2298 30.0803 67.7571 29.5167 68.4126 29.5167H69.9041C70.3403 29.5167 70.752 29.7637 70.957 30.1896L74.5053 37.328H74.9043V29.5167ZM84.466 29.5167C86.1626 29.5167 87.525 30.9876 87.5377 32.7894V36.0075C87.525 37.8228 86.1626 39.2811 84.466 39.2811H78.0258V29.5167H84.466ZM85.6994 33.2019C85.6994 32.2392 84.9798 31.4697 84.0931 31.4697H79.8506V37.328H84.0931C84.9798 37.328 85.6994 36.5578 85.6994 35.6085V33.2019ZM96.7527 29.5167C97.6267 29.5167 98.3336 30.2592 98.3336 31.195V39.2811H96.4954V36.0764H90.6466V39.2811H88.821V31.1942C88.821 30.2592 89.5153 29.5159 90.3893 29.5159L96.7527 29.5167ZM96.4954 31.4697H90.6466V34.1234H96.4954V31.4697ZM99.6169 29.5167H108.743V31.4697H105.093V39.2811H103.267V31.4689H99.6169V29.5167ZM111.862 39.2811H110.036V29.5167H111.862V39.2811ZM120.708 29.5167C121.788 29.5167 122.662 30.4382 122.662 31.5932V37.2045C122.662 38.3596 121.788 39.2811 120.708 39.2811H115.09C114.01 39.2811 113.15 38.3596 113.15 37.2045V31.5932C113.15 30.4374 114.01 29.5167 115.09 29.5167H120.708ZM120.823 31.4697H114.974V37.328H120.823V31.4697ZM131.619 29.5167H133.458V38.016C133.458 38.7174 132.918 39.2811 132.262 39.2811H130.848C130.399 39.2945 130 39.0333 129.794 38.6066L126.246 31.4697H125.771V39.2811H123.945V30.7952C123.945 30.0803 124.473 29.5167 125.128 29.5167H126.619C127.056 29.5167 127.468 29.7637 127.673 30.1896L131.221 37.328H131.619V29.5167Z" fill="black"/>
<mask id="mask1_9481_637" style="mask-type:luminance" maskUnits="userSpaceOnUse" x="2" y="16" width="24" height="24">
<path d="M25.9746 16.9458H2.375V39.5677H25.9746V16.9458Z" fill="white"/>
</mask>
<g mask="url(#mask1_9481_637)">
<path d="M25.8528 34.7811L21.9578 39.2595C21.8743 39.3558 21.7716 39.4335 21.6562 39.4875C21.543 39.5397 21.4199 39.567 21.2952 39.5675H2.82719C2.73838 39.5675 2.65177 39.5398 2.5794 39.4883C2.50466 39.4351 2.44692 39.3615 2.41315 39.2762C2.3782 39.1894 2.36754 39.0948 2.38233 39.0025C2.39711 38.9101 2.43678 38.8236 2.49707 38.7521L6.39523 34.2736C6.48073 34.176 6.58101 34.1002 6.69607 34.0464C6.81007 33.9936 6.92987 33.9667 7.05548 33.9657H25.5219C25.6109 33.966 25.6977 33.9937 25.7705 34.0448C25.8453 34.0982 25.9031 34.1722 25.9367 34.2578C25.9715 34.3444 25.9821 34.4389 25.9673 34.5311C25.9525 34.6232 25.913 34.7097 25.8528 34.7811ZM21.9578 25.764C21.8743 25.6677 21.7716 25.59 21.6562 25.536C21.543 25.4838 21.4199 25.4565 21.2952 25.456H2.82719C2.73838 25.456 2.65177 25.4837 2.5794 25.5352C2.50466 25.5884 2.44692 25.6621 2.41315 25.7474C2.3782 25.8341 2.36754 25.9287 2.38233 26.0211C2.39711 26.1134 2.43678 26.2 2.49707 26.2715L6.39523 30.7491C6.48073 30.8468 6.58101 30.9225 6.69607 30.9763C6.81007 31.0296 6.92987 31.0565 7.05548 31.0571H25.5219C25.6106 31.0571 25.6961 31.0302 25.7705 30.9779C25.8452 30.9247 25.903 30.851 25.9367 30.7657C25.9717 30.679 25.9823 30.5844 25.9676 30.492C25.9528 30.3997 25.9131 30.3131 25.8528 30.2417L21.9578 25.764ZM2.8264 22.5467H21.296C21.4203 22.5467 21.543 22.519 21.657 22.4659C21.772 22.4121 21.8723 22.3361 21.9578 22.2379L25.8536 17.7602C25.9139 17.6888 25.9536 17.6022 25.9684 17.5099C25.9831 17.4175 25.9725 17.3229 25.9375 17.2362C25.9038 17.1509 25.846 17.0772 25.7713 17.024C25.6987 16.9723 25.6118 16.9447 25.5227 16.9448H7.05548C6.9304 16.9448 6.81033 16.9717 6.69528 17.0256C6.58053 17.0796 6.47833 17.157 6.39523 17.2528L2.49786 21.7312C2.43759 21.8026 2.39786 21.889 2.38294 21.9811C2.36802 22.0733 2.37846 22.1678 2.41315 22.2545C2.44878 22.3416 2.50657 22.4145 2.5794 22.4667C2.65303 22.5182 2.73932 22.5459 2.82719 22.5459" fill="black"/>
</g>
</g>
</svg>
