<svg width="140" height="57" viewBox="0 0 140 57" fill="none" xmlns="http://www.w3.org/2000/svg">
<g clip-path="url(#clip0_11780_30685)">
<path d="M82.3717 22.7252V36.0663H86.1366V22.7252H82.3717ZM52.75 22.7026V36.055H56.5488V25.6874L59.511 25.6987C60.4833 25.6987 61.1617 25.9362 61.6252 26.4336C62.2244 27.0668 62.4619 28.0956 62.4619 29.9611V36.055H66.1476V28.6835C66.1476 23.4149 62.7897 22.7026 59.511 22.7026H52.75ZM88.4431 22.7252V36.0663H94.5483C97.8044 36.0663 98.8672 35.5236 100.009 34.3139C100.823 33.466 101.343 31.5892 101.343 29.5428C101.343 27.666 100.902 25.9927 100.122 24.9525C98.7428 23.087 96.7304 22.7252 93.723 22.7252H88.4431ZM92.174 25.6196H93.7908C96.1424 25.6196 97.6574 26.671 97.6574 29.4071C97.6574 32.1431 96.1424 33.2059 93.7908 33.2059H92.174V25.6196ZM76.9448 22.7252L73.8018 33.2964L70.7944 22.7252H66.7242L71.0205 36.0663H76.4474L80.7889 22.7252H76.9448ZM103.107 36.0663H106.872V22.7252H103.107V36.0663ZM113.667 22.7252L108.409 36.055H112.118L112.954 33.6921H119.173L119.964 36.0437H124L118.698 22.7252H113.667ZM116.109 25.156L118.393 31.397H113.757L116.109 25.156Z" fill="black"/>
<path d="M28.453 24.9411V23.1095C28.6339 23.0982 28.8148 23.0869 28.9957 23.0869C34.0155 22.9287 37.3056 27.4058 37.3056 27.4058C37.3056 27.4058 33.7555 32.3352 29.9454 32.3352C29.4366 32.3352 28.9391 32.2561 28.4643 32.0978V26.5353C30.4202 26.7727 30.8159 27.6319 31.9805 29.5879L34.5921 27.3945C34.5921 27.3945 32.6814 24.8959 29.4705 24.8959C29.1313 24.8846 28.7922 24.9072 28.453 24.9411ZM28.453 18.8811V21.6172L28.9957 21.5832C35.9715 21.3458 40.5278 27.3041 40.5278 27.3041C40.5278 27.3041 35.3044 33.658 29.8662 33.658C29.3914 33.658 28.9278 33.6128 28.4643 33.5337V35.2296C28.8487 35.2748 29.2444 35.3087 29.6288 35.3087C34.6939 35.3087 38.357 32.7197 41.9071 29.667C42.495 30.1419 44.9032 31.2838 45.4007 31.7813C42.0315 34.6078 34.1738 36.8803 29.7193 36.8803C29.2896 36.8803 28.8826 36.8576 28.4756 36.8124V39.198H47.7184V18.8811H28.453ZM28.453 32.0978V33.545C23.7723 32.7083 22.4721 27.8355 22.4721 27.8355C22.4721 27.8355 24.722 25.3481 28.453 24.9411V26.524H28.4417C26.4857 26.2865 24.9481 28.1181 24.9481 28.1181C24.9481 28.1181 25.8187 31.2046 28.453 32.0978ZM20.1431 27.6319C20.1431 27.6319 22.913 23.5392 28.4643 23.1095V21.6172C22.3138 22.1146 17 27.3154 17 27.3154C17 27.3154 20.0074 36.021 28.453 36.8124V35.2296C22.2573 34.4608 20.1431 27.6319 20.1431 27.6319Z" fill="black"/>
</g>
<defs>
<clipPath id="clip0_11780_30685">
<rect width="107" height="20" fill="white" transform="translate(17 19)"/>
</clipPath>
</defs>
</svg>
