<svg width="140" height="57" viewBox="0 0 140 57" fill="none" xmlns="http://www.w3.org/2000/svg">
<mask id="mask0_9481_663" style="mask-type:luminance" maskUnits="userSpaceOnUse" x="14" y="15" width="112" height="26">
<path d="M14.9165 15.52H125.446V40.8534H14.9165V15.52Z" fill="white"/>
</mask>
<g mask="url(#mask0_9481_663)">
<path fill-rule="evenodd" clip-rule="evenodd" d="M106.422 23.0536H109.561V19.9146H106.422V23.0536ZM89.7361 28.2841C90.0382 27.4845 90.5765 26.7956 91.2794 26.3092C91.9824 25.8228 92.8167 25.5617 93.6715 25.5608C94.5265 25.5608 95.3611 25.8214 96.0641 26.308C96.7671 26.7946 97.305 27.484 97.6061 28.2841H89.7361ZM93.6715 22.638C91.7813 22.6384 89.9687 23.3894 88.6321 24.726C87.2956 26.0626 86.5445 27.8752 86.5441 29.7654C86.5441 33.6999 89.7361 36.8919 93.6715 36.8919C94.9516 36.8921 96.2081 36.5474 97.3089 35.894C98.4098 35.2407 99.3142 34.3028 99.9273 33.179L97.2965 31.9005C96.9254 32.5321 96.3957 33.0558 95.7598 33.4196C95.124 33.7834 94.4041 33.9748 93.6715 33.9746C92.7431 33.9745 91.8408 33.6674 91.1051 33.1011C90.3694 32.5348 89.8416 31.7411 89.6039 30.8436H97.7383V30.8484H100.718C100.771 30.4937 100.798 30.1327 100.798 29.7654C100.798 28.8293 100.614 27.9025 100.256 27.0376C99.8982 26.1728 99.3733 25.387 98.7115 24.7251C98.0497 24.0632 97.2639 23.5382 96.3992 23.1801C95.5344 22.822 94.6075 22.6378 93.6715 22.638ZM101.629 36.5119H104.768V33.373H101.629V36.5119ZM106.422 36.5119H109.561V24.4335H106.422V36.5119ZM118.319 33.9739C117.766 33.9741 117.219 33.8654 116.708 33.6539C116.198 33.4425 115.734 33.1325 115.343 32.7417C114.952 32.3509 114.642 31.8869 114.43 31.3762C114.219 30.8655 114.11 30.3181 114.11 29.7654C114.11 29.2125 114.218 28.6651 114.43 28.1543C114.641 27.6435 114.951 27.1794 115.342 26.7885C115.733 26.3976 116.197 26.0875 116.708 25.876C117.219 25.6646 117.766 25.5559 118.319 25.5561C118.872 25.556 119.419 25.6648 119.93 25.8763C120.441 26.0878 120.905 26.3978 121.296 26.7887C121.687 27.1796 121.997 27.6437 122.208 28.1544C122.42 28.6651 122.529 29.2125 122.529 29.7654C122.529 30.3181 122.42 30.8654 122.208 31.3761C121.997 31.8867 121.687 32.3507 121.296 32.7415C120.905 33.1323 120.441 33.4423 119.93 33.6537C119.419 33.8652 118.872 33.974 118.319 33.9739ZM118.319 22.638C114.385 22.638 111.192 25.83 111.192 29.7654C111.192 33.6999 114.385 36.8919 118.319 36.8919C122.254 36.8919 125.446 33.6999 125.446 29.7654C125.446 25.8308 122.254 22.638 118.319 22.638ZM52.6917 27.1394V30.3844H57.0815C56.8636 31.2967 56.4042 32.1334 55.7515 32.8069C54.7698 33.8108 53.4121 34.3586 51.9261 34.3586C48.8402 34.3586 46.329 31.8474 46.329 28.7568C46.329 25.6709 48.8402 23.1557 51.9261 23.1557C53.5799 23.1557 55.1007 23.8627 56.1536 25.0834L58.664 23.0275C57.8321 22.0527 56.7994 21.2692 55.6366 20.7304C54.4738 20.1917 53.2084 19.9104 51.9269 19.9059C47.0503 19.9059 43.084 23.8761 43.084 28.7528C43.084 33.6295 47.0503 37.5997 51.9269 37.5997C54.2964 37.5997 56.4758 36.7463 58.0718 35.1146C59.4113 33.7443 60.3004 31.834 60.4682 29.9245C60.55 28.9952 60.5632 28.0611 60.5078 27.1299L52.6917 27.1394ZM68.6786 33.9739C67.5625 33.9732 66.4924 33.5297 65.7031 32.7406C64.9139 31.9515 64.4701 30.8814 64.4693 29.7654C64.4691 29.2125 64.5778 28.6651 64.7893 28.1543C65.0007 27.6435 65.3108 27.1794 65.7017 26.7885C66.0926 26.3976 66.5567 26.0875 67.0675 25.876C67.5783 25.6646 68.1258 25.5559 68.6786 25.5561C69.2313 25.556 69.7787 25.6648 70.2894 25.8763C70.8001 26.0878 71.2641 26.3978 71.655 26.7887C72.0458 27.1796 72.3558 27.6437 72.5672 28.1545C72.7786 28.6652 72.8873 29.2126 72.8871 29.7654C72.8872 30.318 72.7784 30.8654 72.5669 31.376C72.3555 31.8866 72.0455 32.3506 71.6547 32.7414C71.2639 33.1323 70.7999 33.4423 70.2892 33.6537C69.7786 33.8652 69.2313 33.974 68.6786 33.9739ZM72.8871 24.0266C71.6672 23.1304 70.1923 22.6485 68.6786 22.6514C64.744 22.6514 61.556 25.8434 61.556 29.7788C61.556 33.7134 64.748 36.9054 68.6786 36.9054C70.1919 36.9056 71.6659 36.4239 72.8871 35.5303V36.5159H75.8052V23.0417H72.8871V24.0266ZM82.0657 19.9146H79.1476V23.0536H77.4012V25.8086H79.1476V33.0144C79.1476 33.7577 79.2402 34.3855 79.4263 34.8764C79.5918 35.3233 79.8651 35.7225 80.2219 36.0385C80.5583 36.3393 80.9518 36.5737 81.4205 36.7114C81.8978 36.8436 82.4195 36.8967 82.9761 36.8967C83.5508 36.8967 84.0638 36.8389 84.4969 36.7194C84.8981 36.6113 85.2854 36.4573 85.6511 36.2602V34.0404C85.0764 34.2881 84.5373 34.3808 83.9221 34.4077C83.2722 34.4386 82.8922 34.2525 82.5739 33.9477C82.2383 33.6295 82.0609 33.2139 82.0609 32.5196V25.8086H85.6511V23.0536H82.0609V19.9146H82.0657ZM27.5697 35.1455C25.7241 35.1455 23.9542 34.4124 22.6491 33.1073C21.3441 31.8023 20.611 30.0323 20.611 28.1868C20.611 26.3412 21.3441 24.5712 22.6491 23.2662C23.9542 21.9612 25.7241 21.228 27.5697 21.228V15.5288C20.5793 15.5288 14.9165 21.1971 14.9165 28.1868C14.9165 35.1764 20.5801 40.84 27.5697 40.84C34.5554 40.84 40.2237 35.1716 40.2237 28.1868H34.5293C34.5293 30.0323 33.7961 31.8023 32.4911 33.1073C31.1861 34.4124 29.4153 35.1455 27.5697 35.1455Z" fill="black"/>
<path fill-rule="evenodd" clip-rule="evenodd" d="M27.5698 28.1868H34.5286V21.228H27.5698V28.1868Z" fill="black"/>
</g>
</svg>
