<svg width="140" height="57" viewBox="0 0 140 57" fill="none" xmlns="http://www.w3.org/2000/svg">
<mask id="mask0_9481_656" style="mask-type:luminance" maskUnits="userSpaceOnUse" x="39" y="13" width="65" height="26">
<path d="M39.125 13.4585H103.949V38.7918H39.125V13.4585Z" fill="white"/>
</mask>
<g mask="url(#mask0_9481_656)">
<path d="M85.3275 31.9795V15.3213H88.6762V31.9795H85.3275ZM46.303 36.9275H39.125V20.2692H46.0149C49.3636 20.2692 51.3143 22.0948 51.3143 24.948C51.3143 26.7965 50.0611 27.9911 49.1934 28.3885C50.2289 28.8556 51.5542 29.9085 51.5542 32.1323C51.5542 35.2436 49.3636 36.9275 46.303 36.9275ZM45.7497 23.1707H42.4737V27.0079H45.7489C47.1699 27.0079 47.9655 26.236 47.9655 25.0889C47.9655 23.9433 47.1707 23.1707 45.7497 23.1707ZM45.9658 29.9331H42.4745V34.0276H45.9674C47.485 34.0276 48.2062 33.0918 48.2062 31.9685C48.2062 30.8451 47.4834 29.9323 45.9674 29.9323L45.9658 29.9331ZM61.7675 30.0962V36.9282H58.4425V30.0962L53.2879 20.27H56.9256L60.1295 26.9849L63.2851 20.27H66.922L61.7675 30.0962ZM76.4149 36.9282H69.236V20.2684H76.1259C79.4747 20.2684 81.4253 22.094 81.4253 24.9472C81.4253 26.7957 80.1721 27.9903 79.3052 28.3877C80.3407 28.8548 81.6652 29.9077 81.6652 32.1315C81.6652 35.2428 79.4747 36.9267 76.4149 36.9267M75.8607 23.1691H72.5848V27.0063H75.8607C77.2817 27.0063 78.0774 26.2344 78.0774 25.0873C78.0774 23.9417 77.2817 23.1691 75.8607 23.1691ZM76.0768 29.9315H72.584V34.026H76.0768C77.5952 34.026 78.3172 33.0902 78.3172 31.9669C78.3172 30.8435 77.5952 29.9315 76.0768 29.9315ZM99.4682 23.1699V36.9267H96.1195V23.1707H91.6402V20.2692H103.949V23.1707L99.4682 23.1699Z" fill="black"/>
</g>
</svg>
